<svg width="879" height="106" viewBox="0 0 879 106" fill="none" xmlns="http://www.w3.org/2000/svg">
<path d="M86.2344 104H61.6953L25.4141 40.2969V104H0.734375V1.625H25.4141L61.625 65.3281V1.625H86.2344V104ZM126.523 69.2656V104H101.844V1.625H142.695C150.523 1.625 157.438 3.07813 163.438 5.98438C169.484 8.84375 174.148 12.9453 177.43 18.2891C180.758 23.5859 182.422 29.6094 182.422 36.3594C182.422 46.3438 178.836 54.3359 171.664 60.3359C164.539 66.2891 154.742 69.2656 142.273 69.2656H126.523ZM126.523 50.2109H142.695C147.477 50.2109 151.109 49.0156 153.594 46.625C156.125 44.2344 157.391 40.8594 157.391 36.5C157.391 31.7188 156.102 27.8984 153.523 25.0391C150.945 22.1797 147.43 20.7266 142.977 20.6797H126.523V50.2109ZM248.445 76.7891C248.445 73.1797 247.156 70.3672 244.578 68.3516C242.047 66.3359 237.57 64.25 231.148 62.0938C224.727 59.9375 219.477 57.8516 215.398 55.8359C202.133 49.3203 195.5 40.3672 195.5 28.9766C195.5 23.3047 197.141 18.3125 200.422 14C203.75 9.64062 208.438 6.26562 214.484 3.875C220.531 1.4375 227.328 0.21875 234.875 0.21875C242.234 0.21875 248.82 1.53125 254.633 4.15625C260.492 6.78125 265.039 10.5313 268.273 15.4062C271.508 20.2344 273.125 25.7656 273.125 32H248.516C248.516 27.8281 247.227 24.5938 244.648 22.2969C242.117 20 238.672 18.8516 234.312 18.8516C229.906 18.8516 226.414 19.8359 223.836 21.8047C221.305 23.7266 220.039 26.1875 220.039 29.1875C220.039 31.8125 221.445 34.2031 224.258 36.3594C227.07 38.4688 232.016 40.6719 239.094 42.9688C246.172 45.2188 251.984 47.6562 256.531 50.2812C267.594 56.6562 273.125 65.4453 273.125 76.6484C273.125 85.6016 269.75 92.6328 263 97.7422C256.25 102.852 246.992 105.406 235.227 105.406C226.93 105.406 219.406 103.93 212.656 100.977C205.953 97.9766 200.891 93.8984 197.469 88.7422C194.094 83.5391 192.406 77.5625 192.406 70.8125H217.156C217.156 76.2969 218.562 80.3516 221.375 82.9766C224.234 85.5547 228.852 86.8438 235.227 86.8438C239.305 86.8438 242.516 85.9766 244.859 84.2422C247.25 82.4609 248.445 79.9766 248.445 76.7891ZM366.852 69.0547H324.594V50.7031H366.852V69.0547Z" fill="#A8A8B3"/>
<path d="M506.984 104H485.891L444.828 36.6406V104H423.734V1.625H444.828L485.961 69.125V1.625H506.984V104ZM546.5 87.0547H591.289V104H525.406V1.625H546.5V87.0547ZM676.578 74.4688L690.359 1.625H711.383L688.672 104H667.438L650.773 35.5156L634.109 104H612.875L590.164 1.625H611.188L625.039 74.3281L641.914 1.625H659.773L676.578 74.4688ZM760.602 75.1719H747.031L741.969 104H729.102L734.164 75.1719H718.203V63.0781H736.273L739.789 43.1094H723.477V30.875H741.969L747.102 1.625H759.898L754.766 30.875H768.406L773.539 1.625H786.406L781.273 30.875H796.672V43.1094H779.094L775.578 63.0781H791.328V75.1719H773.469L768.406 104H755.539L760.602 75.1719ZM749.141 63.0781H762.711L766.227 43.1094H752.586L749.141 63.0781ZM866.562 65.4688H878.164V81.8516H866.562V104H846.242V81.8516H804.266L803.352 69.0547L846.031 1.625H866.562V65.4688ZM823.602 65.4688H846.242V29.3281L844.906 31.6484L823.602 65.4688Z" fill="#8CC84B"/>
</svg>
