<svg width="888" height="139" viewBox="0 0 888 139" fill="none" xmlns="http://www.w3.org/2000/svg">
<path d="M81.375 19.9688H49.4531V108H31.8047V19.9688H0.164062V5.625H81.375V19.9688ZM128.414 47.5312C126.164 47.1562 123.844 46.9688 121.453 46.9688C113.625 46.9688 108.352 49.9688 105.633 55.9688V108H88.5469V31.9219H104.859L105.281 40.4297C109.406 33.8203 115.125 30.5156 122.438 30.5156C124.875 30.5156 126.891 30.8438 128.484 31.5L128.414 47.5312ZM157.383 108H140.297V31.9219H157.383V108ZM139.242 12.1641C139.242 9.53906 140.062 7.35938 141.703 5.625C143.391 3.89062 145.781 3.02344 148.875 3.02344C151.969 3.02344 154.359 3.89062 156.047 5.625C157.734 7.35938 158.578 9.53906 158.578 12.1641C158.578 14.7422 157.734 16.8984 156.047 18.6328C154.359 20.3203 151.969 21.1641 148.875 21.1641C145.781 21.1641 143.391 20.3203 141.703 18.6328C140.062 16.8984 139.242 14.7422 139.242 12.1641ZM194.227 108H177.141V0H194.227V108ZM229.734 40.2188C235.312 33.75 242.367 30.5156 250.898 30.5156C267.117 30.5156 275.344 39.7734 275.578 58.2891V108H258.492V58.9219C258.492 53.6719 257.344 49.9688 255.047 47.8125C252.797 45.6094 249.469 44.5078 245.062 44.5078C238.219 44.5078 233.109 47.5547 229.734 53.6484V108H212.648V0H229.734V40.2188ZM338.367 108C337.617 106.547 336.961 104.18 336.398 100.898C330.961 106.57 324.305 109.406 316.43 109.406C308.789 109.406 302.555 107.227 297.727 102.867C292.898 98.5078 290.484 93.1172 290.484 86.6953C290.484 78.5859 293.484 72.375 299.484 68.0625C305.531 63.7031 314.156 61.5234 325.359 61.5234H335.836V56.5312C335.836 52.5938 334.734 49.4531 332.531 47.1094C330.328 44.7188 326.977 43.5234 322.477 43.5234C318.586 43.5234 315.398 44.5078 312.914 46.4766C310.43 48.3984 309.188 50.8594 309.188 53.8594H292.102C292.102 49.6875 293.484 45.7969 296.25 42.1875C299.016 38.5312 302.766 35.6719 307.5 33.6094C312.281 31.5469 317.602 30.5156 323.461 30.5156C332.367 30.5156 339.469 32.7656 344.766 37.2656C350.062 41.7188 352.781 48 352.922 56.1094V90.4219C352.922 97.2656 353.883 102.727 355.805 106.805V108H338.367ZM319.594 95.6953C322.969 95.6953 326.133 94.875 329.086 93.2344C332.086 91.5938 334.336 89.3906 335.836 86.625V72.2812H326.625C320.297 72.2812 315.539 73.3828 312.352 75.5859C309.164 77.7891 307.57 80.9062 307.57 84.9375C307.57 88.2188 308.648 90.8438 310.805 92.8125C313.008 94.7344 315.938 95.6953 319.594 95.6953Z" fill="#A8A8B3"/>
<path d="M490.172 108H469.078L428.016 40.6406V108H406.922V5.625H428.016L469.148 73.125V5.625H490.172V108ZM504.094 69.2578C504.094 61.7109 505.547 54.9844 508.453 49.0781C511.359 43.1719 515.531 38.6016 520.969 35.3672C526.453 32.1328 532.805 30.5156 540.023 30.5156C550.289 30.5156 558.656 33.6563 565.125 39.9375C571.641 46.2188 575.273 54.75 576.023 65.5312L576.164 70.7344C576.164 82.4062 572.906 91.7812 566.391 98.8594C559.875 105.891 551.133 109.406 540.164 109.406C529.195 109.406 520.43 105.891 513.867 98.8594C507.352 91.8281 504.094 82.2656 504.094 70.1719V69.2578ZM524.414 70.7344C524.414 77.9531 525.773 83.4844 528.492 87.3281C531.211 91.125 535.102 93.0234 540.164 93.0234C545.086 93.0234 548.93 91.1484 551.695 87.3984C554.461 83.6016 555.844 77.5547 555.844 69.2578C555.844 62.1797 554.461 56.6953 551.695 52.8047C548.93 48.9141 545.039 46.9688 540.023 46.9688C535.055 46.9688 531.211 48.9141 528.492 52.8047C525.773 56.6484 524.414 62.625 524.414 70.7344ZM585.516 69.3984C585.516 57.5391 588.164 48.0938 593.461 41.0625C598.805 34.0312 606.094 30.5156 615.328 30.5156C622.734 30.5156 628.852 33.2812 633.68 38.8125V0H654.07V108H635.719L634.734 99.9141C629.672 106.242 623.156 109.406 615.188 109.406C606.234 109.406 599.039 105.891 593.602 98.8594C588.211 91.7812 585.516 81.9609 585.516 69.3984ZM605.836 70.875C605.836 78 607.078 83.4609 609.562 87.2578C612.047 91.0547 615.656 92.9531 620.391 92.9531C626.672 92.9531 631.102 90.3047 633.68 85.0078V54.9844C631.148 49.6875 626.766 47.0391 620.531 47.0391C610.734 47.0391 605.836 54.9844 605.836 70.875ZM704.836 109.406C693.68 109.406 684.586 105.984 677.555 99.1406C670.57 92.2969 667.078 83.1797 667.078 71.7891V69.8203C667.078 62.1797 668.555 55.3594 671.508 49.3594C674.461 43.3125 678.633 38.6719 684.023 35.4375C689.461 32.1562 695.648 30.5156 702.586 30.5156C712.992 30.5156 721.172 33.7969 727.125 40.3594C733.125 46.9219 736.125 56.2266 736.125 68.2734V76.5703H687.68C688.336 81.5391 690.305 85.5234 693.586 88.5234C696.914 91.5234 701.109 93.0234 706.172 93.0234C714 93.0234 720.117 90.1875 724.523 84.5156L734.508 95.6953C731.461 100.008 727.336 103.383 722.133 105.82C716.93 108.211 711.164 109.406 704.836 109.406ZM702.516 46.9688C698.484 46.9688 695.203 48.3281 692.672 51.0469C690.188 53.7656 688.594 57.6562 687.891 62.7188H716.156V61.1016C716.062 56.6016 714.844 53.1328 712.5 50.6953C710.156 48.2109 706.828 46.9688 702.516 46.9688ZM748.781 98.0156C748.781 94.7812 749.859 92.1562 752.016 90.1406C754.219 88.125 756.961 87.1172 760.242 87.1172C763.57 87.1172 766.312 88.125 768.469 90.1406C770.672 92.1562 771.773 94.7812 771.773 98.0156C771.773 101.203 770.695 103.805 768.539 105.82C766.383 107.789 763.617 108.773 760.242 108.773C756.914 108.773 754.172 107.789 752.016 105.82C749.859 103.805 748.781 101.203 748.781 98.0156ZM811.148 31.9219V112.148C811.148 120.539 808.922 127.055 804.469 131.695C800.016 136.383 793.594 138.727 785.203 138.727C781.688 138.727 778.336 138.328 775.148 137.531V121.43C777.586 121.852 779.719 122.062 781.547 122.062C787.688 122.062 790.758 118.805 790.758 112.289V31.9219H811.148ZM789.141 12.2344C789.141 9.1875 790.148 6.67969 792.164 4.71094C794.227 2.74219 797.016 1.75781 800.531 1.75781C804.047 1.75781 806.812 2.74219 808.828 4.71094C810.891 6.67969 811.922 9.1875 811.922 12.2344C811.922 15.3281 810.867 17.8594 808.758 19.8281C806.695 21.7969 803.953 22.7812 800.531 22.7812C797.109 22.7812 794.344 21.7969 792.234 19.8281C790.172 17.8594 789.141 15.3281 789.141 12.2344ZM868.242 86.9766C868.242 84.4922 867 82.5469 864.516 81.1406C862.078 79.6875 858.141 78.3984 852.703 77.2734C834.609 73.4766 825.562 65.7891 825.562 54.2109C825.562 47.4609 828.352 41.8359 833.93 37.3359C839.555 32.7891 846.891 30.5156 855.938 30.5156C865.594 30.5156 873.305 32.7891 879.07 37.3359C884.883 41.8828 887.789 47.7891 887.789 55.0547H867.469C867.469 52.1484 866.531 49.7578 864.656 47.8828C862.781 45.9609 859.852 45 855.867 45C852.445 45 849.797 45.7734 847.922 47.3203C846.047 48.8672 845.109 50.8359 845.109 53.2266C845.109 55.4766 846.164 57.3047 848.273 58.7109C850.43 60.0703 854.039 61.2656 859.102 62.2969C864.164 63.2812 868.43 64.4062 871.898 65.6719C882.633 69.6094 888 76.4297 888 86.1328C888 93.0703 885.023 98.6953 879.07 103.008C873.117 107.273 865.43 109.406 856.008 109.406C849.633 109.406 843.961 108.281 838.992 106.031C834.07 103.734 830.203 100.617 827.391 96.6797C824.578 92.6953 823.172 88.4062 823.172 83.8125H842.438C842.625 87.4219 843.961 90.1875 846.445 92.1094C848.93 94.0312 852.258 94.9922 856.43 94.9922C860.32 94.9922 863.25 94.2656 865.219 92.8125C867.234 91.3125 868.242 89.3672 868.242 86.9766Z" fill="#8CC84B"/>
</svg>
